<svg id="visual" viewBox="0 0 400 400" width="400" height="400" xmlns="http://www.w3.org/2000/svg" xmlns:xlink="http://www.w3.org/1999/xlink" version="1.1"><g stroke-width="1" stroke-linejoin="bevel"><path d="M207 208L223 256L225 210Z" fill="#82a1b7" stroke="#82a1b7"></path><path d="M223 256L247 240L225 210Z" fill="#a4b3be" stroke="#a4b3be"></path><path d="M207 208L200 266L223 256Z" fill="#a4b3be" stroke="#a4b3be"></path><path d="M284 283L251 244L223 256Z" fill="#4e89ac" stroke="#4e89ac"></path><path d="M223 256L251 244L247 240Z" fill="#afb9c1" stroke="#afb9c1"></path><path d="M247 240L247 168L225 210Z" fill="#3e84a9" stroke="#3e84a9"></path><path d="M155 231L194 271L200 266Z" fill="#4e89ac" stroke="#4e89ac"></path><path d="M200 266L226 307L223 256Z" fill="#297ea6" stroke="#297ea6"></path><path d="M207 208L162 219L200 266Z" fill="#3e84a9" stroke="#3e84a9"></path><path d="M162 219L155 231L200 266Z" fill="#a4b3be" stroke="#a4b3be"></path><path d="M310 193L247 168L247 240Z" fill="#3e84a9" stroke="#3e84a9"></path><path d="M225 210L247 168L207 208Z" fill="#99adbc" stroke="#99adbc"></path><path d="M207 208L144 140L162 219Z" fill="#8ea7b9" stroke="#8ea7b9"></path><path d="M191 325L226 307L194 271Z" fill="#99adbc" stroke="#99adbc"></path><path d="M194 271L226 307L200 266Z" fill="#769bb4" stroke="#769bb4"></path><path d="M155 231L170 305L194 271Z" fill="#769bb4" stroke="#769bb4"></path><path d="M226 307L284 283L223 256Z" fill="#82a1b7" stroke="#82a1b7"></path><path d="M251 244L310 193L247 240Z" fill="#5c8fae" stroke="#5c8fae"></path><path d="M247 168L209 139L207 208Z" fill="#4e89ac" stroke="#4e89ac"></path><path d="M170 305L191 325L194 271Z" fill="#6a95b1" stroke="#6a95b1"></path><path d="M226 307L263 314L284 283Z" fill="#82a1b7" stroke="#82a1b7"></path><path d="M232 329L263 314L226 307Z" fill="#8ea7b9" stroke="#8ea7b9"></path><path d="M170 305L182 325L191 325Z" fill="#769bb4" stroke="#769bb4"></path><path d="M191 325L232 329L226 307Z" fill="#82a1b7" stroke="#82a1b7"></path><path d="M251 347L232 329L216 389Z" fill="#769bb4" stroke="#769bb4"></path><path d="M247 168L215 132L209 139Z" fill="#6a95b1" stroke="#6a95b1"></path><path d="M310 193L257 140L247 168Z" fill="#5c8fae" stroke="#5c8fae"></path><path d="M247 168L257 140L215 132Z" fill="#769bb4" stroke="#769bb4"></path><path d="M326 234L310 193L251 244Z" fill="#afb9c1" stroke="#afb9c1"></path><path d="M317 287L312 268L284 283Z" fill="#afb9c1" stroke="#afb9c1"></path><path d="M284 283L312 268L251 244Z" fill="#5c8fae" stroke="#5c8fae"></path><path d="M257 140L215 124L215 132Z" fill="#5c8fae" stroke="#5c8fae"></path><path d="M215 132L215 124L209 139Z" fill="#8ea7b9" stroke="#8ea7b9"></path><path d="M121 156L101 219L162 219Z" fill="#297ea6" stroke="#297ea6"></path><path d="M162 219L101 219L155 231Z" fill="#99adbc" stroke="#99adbc"></path><path d="M232 329L268 327L263 314Z" fill="#8ea7b9" stroke="#8ea7b9"></path><path d="M263 314L268 327L284 283Z" fill="#5c8fae" stroke="#5c8fae"></path><path d="M312 268L326 234L251 244Z" fill="#297ea6" stroke="#297ea6"></path><path d="M144 140L207 208L209 139Z" fill="#297ea6" stroke="#297ea6"></path><path d="M155 231L123 305L170 305Z" fill="#82a1b7" stroke="#82a1b7"></path><path d="M170 305L153 351L182 325Z" fill="#4e89ac" stroke="#4e89ac"></path><path d="M145 137L144 140L209 139Z" fill="#99adbc" stroke="#99adbc"></path><path d="M101 219L123 305L155 231Z" fill="#afb9c1" stroke="#afb9c1"></path><path d="M268 327L317 287L284 283Z" fill="#a4b3be" stroke="#a4b3be"></path><path d="M312 268L357 263L326 234Z" fill="#3e84a9" stroke="#3e84a9"></path><path d="M215 124L145 137L209 139Z" fill="#769bb4" stroke="#769bb4"></path><path d="M144 140L121 156L162 219Z" fill="#769bb4" stroke="#769bb4"></path><path d="M108 111L121 156L144 140Z" fill="#8ea7b9" stroke="#8ea7b9"></path><path d="M232 329L251 347L268 327Z" fill="#769bb4" stroke="#769bb4"></path><path d="M330 343L367 278L317 287Z" fill="#5c8fae" stroke="#5c8fae"></path><path d="M216 389L232 329L191 325Z" fill="#769bb4" stroke="#769bb4"></path><path d="M310 193L279 128L257 140Z" fill="#a4b3be" stroke="#a4b3be"></path><path d="M257 140L254 103L215 124Z" fill="#5c8fae" stroke="#5c8fae"></path><path d="M92 308L118 324L123 305Z" fill="#82a1b7" stroke="#82a1b7"></path><path d="M123 305L118 324L170 305Z" fill="#8ea7b9" stroke="#8ea7b9"></path><path d="M182 325L189 386L191 325Z" fill="#6a95b1" stroke="#6a95b1"></path><path d="M118 324L153 351L170 305Z" fill="#4e89ac" stroke="#4e89ac"></path><path d="M108 111L98 166L121 156Z" fill="#99adbc" stroke="#99adbc"></path><path d="M121 156L98 166L101 219Z" fill="#4e89ac" stroke="#4e89ac"></path><path d="M279 128L254 103L257 140Z" fill="#6a95b1" stroke="#6a95b1"></path><path d="M215 124L140 92L145 137Z" fill="#6a95b1" stroke="#6a95b1"></path><path d="M357 263L348 212L326 234Z" fill="#8ea7b9" stroke="#8ea7b9"></path><path d="M326 234L348 212L310 193Z" fill="#3e84a9" stroke="#3e84a9"></path><path d="M310 193L325 140L279 128Z" fill="#a4b3be" stroke="#a4b3be"></path><path d="M254 103L216 95L215 124Z" fill="#99adbc" stroke="#99adbc"></path><path d="M74 283L92 308L123 305Z" fill="#297ea6" stroke="#297ea6"></path><path d="M93 400L152 400L153 351Z" fill="#4e89ac" stroke="#4e89ac"></path><path d="M74 283L123 305L101 219Z" fill="#5c8fae" stroke="#5c8fae"></path><path d="M353 154L331 148L310 193Z" fill="#3e84a9" stroke="#3e84a9"></path><path d="M279 128L293 93L254 103Z" fill="#8ea7b9" stroke="#8ea7b9"></path><path d="M331 148L325 140L310 193Z" fill="#3e84a9" stroke="#3e84a9"></path><path d="M317 287L357 263L312 268Z" fill="#8ea7b9" stroke="#8ea7b9"></path><path d="M367 278L357 263L317 287Z" fill="#8ea7b9" stroke="#8ea7b9"></path><path d="M59 253L74 283L101 219Z" fill="#769bb4" stroke="#769bb4"></path><path d="M152 400L189 386L153 351Z" fill="#5c8fae" stroke="#5c8fae"></path><path d="M153 351L189 386L182 325Z" fill="#82a1b7" stroke="#82a1b7"></path><path d="M40 221L59 253L101 219Z" fill="#82a1b7" stroke="#82a1b7"></path><path d="M189 386L216 389L191 325Z" fill="#afb9c1" stroke="#afb9c1"></path><path d="M330 343L317 287L268 327Z" fill="#8ea7b9" stroke="#8ea7b9"></path><path d="M145 137L108 111L144 140Z" fill="#8ea7b9" stroke="#8ea7b9"></path><path d="M216 95L140 92L215 124Z" fill="#99adbc" stroke="#99adbc"></path><path d="M348 212L353 154L310 193Z" fill="#769bb4" stroke="#769bb4"></path><path d="M331 148L353 154L325 140Z" fill="#5c8fae" stroke="#5c8fae"></path><path d="M325 140L293 93L279 128Z" fill="#99adbc" stroke="#99adbc"></path><path d="M400 174L353 154L348 212Z" fill="#afb9c1" stroke="#afb9c1"></path><path d="M330 343L268 327L309 392Z" fill="#3e84a9" stroke="#3e84a9"></path><path d="M357 263L400 235L348 212Z" fill="#a4b3be" stroke="#a4b3be"></path><path d="M309 392L268 327L251 347Z" fill="#99adbc" stroke="#99adbc"></path><path d="M341 74L293 93L325 140Z" fill="#82a1b7" stroke="#82a1b7"></path><path d="M254 103L247 75L216 95Z" fill="#5c8fae" stroke="#5c8fae"></path><path d="M216 95L166 68L140 92Z" fill="#82a1b7" stroke="#82a1b7"></path><path d="M140 92L108 111L145 137Z" fill="#8ea7b9" stroke="#8ea7b9"></path><path d="M98 166L49 194L101 219Z" fill="#769bb4" stroke="#769bb4"></path><path d="M293 93L247 75L254 103Z" fill="#5c8fae" stroke="#5c8fae"></path><path d="M108 111L74 150L98 166Z" fill="#4e89ac" stroke="#4e89ac"></path><path d="M189 386L212 400L216 389Z" fill="#5c8fae" stroke="#5c8fae"></path><path d="M216 389L283 400L251 347Z" fill="#a4b3be" stroke="#a4b3be"></path><path d="M212 400L215 400L216 389Z" fill="#a4b3be" stroke="#a4b3be"></path><path d="M74 150L49 194L98 166Z" fill="#82a1b7" stroke="#82a1b7"></path><path d="M197 60L166 68L216 95Z" fill="#6a95b1" stroke="#6a95b1"></path><path d="M67 74L82 113L108 111Z" fill="#3e84a9" stroke="#3e84a9"></path><path d="M247 75L197 60L216 95Z" fill="#4e89ac" stroke="#4e89ac"></path><path d="M49 194L40 221L101 219Z" fill="#82a1b7" stroke="#82a1b7"></path><path d="M59 253L51 304L74 283Z" fill="#297ea6" stroke="#297ea6"></path><path d="M6 296L51 304L0 273Z" fill="#6a95b1" stroke="#6a95b1"></path><path d="M74 283L51 304L92 308Z" fill="#6a95b1" stroke="#6a95b1"></path><path d="M55 370L93 400L118 324Z" fill="#6a95b1" stroke="#6a95b1"></path><path d="M189 386L152 400L212 400Z" fill="#4e89ac" stroke="#4e89ac"></path><path d="M108 111L82 113L74 150Z" fill="#8ea7b9" stroke="#8ea7b9"></path><path d="M74 150L0 156L49 194Z" fill="#769bb4" stroke="#769bb4"></path><path d="M102 54L108 111L140 92Z" fill="#297ea6" stroke="#297ea6"></path><path d="M93 400L153 351L118 324Z" fill="#3e84a9" stroke="#3e84a9"></path><path d="M215 400L283 400L216 389Z" fill="#8ea7b9" stroke="#8ea7b9"></path><path d="M82 113L65 123L74 150Z" fill="#a4b3be" stroke="#a4b3be"></path><path d="M49 194L7 213L40 221Z" fill="#82a1b7" stroke="#82a1b7"></path><path d="M283 400L309 392L251 347Z" fill="#a4b3be" stroke="#a4b3be"></path><path d="M400 267L357 263L367 278Z" fill="#8ea7b9" stroke="#8ea7b9"></path><path d="M400 267L367 278L400 293Z" fill="#afb9c1" stroke="#afb9c1"></path><path d="M400 267L400 235L357 263Z" fill="#99adbc" stroke="#99adbc"></path><path d="M400 235L400 223L348 212Z" fill="#6a95b1" stroke="#6a95b1"></path><path d="M283 400L301 400L309 392Z" fill="#3e84a9" stroke="#3e84a9"></path><path d="M380 333L367 278L330 343Z" fill="#3e84a9" stroke="#3e84a9"></path><path d="M166 68L146 55L140 92Z" fill="#82a1b7" stroke="#82a1b7"></path><path d="M82 113L67 74L65 123Z" fill="#3e84a9" stroke="#3e84a9"></path><path d="M197 60L146 55L166 68Z" fill="#6a95b1" stroke="#6a95b1"></path><path d="M380 333L330 343L364 400Z" fill="#82a1b7" stroke="#82a1b7"></path><path d="M400 350L380 333L364 400Z" fill="#769bb4" stroke="#769bb4"></path><path d="M400 223L400 174L348 212Z" fill="#297ea6" stroke="#297ea6"></path><path d="M353 154L341 74L325 140Z" fill="#a4b3be" stroke="#a4b3be"></path><path d="M380 333L400 293L367 278Z" fill="#82a1b7" stroke="#82a1b7"></path><path d="M293 93L251 34L247 75Z" fill="#297ea6" stroke="#297ea6"></path><path d="M247 75L251 34L197 60Z" fill="#afb9c1" stroke="#afb9c1"></path><path d="M197 60L186 0L146 55Z" fill="#5c8fae" stroke="#5c8fae"></path><path d="M301 11L251 34L293 93Z" fill="#99adbc" stroke="#99adbc"></path><path d="M400 101L341 74L353 154Z" fill="#8ea7b9" stroke="#8ea7b9"></path><path d="M55 370L118 324L92 308Z" fill="#a4b3be" stroke="#a4b3be"></path><path d="M0 156L7 213L49 194Z" fill="#6a95b1" stroke="#6a95b1"></path><path d="M40 221L0 233L59 253Z" fill="#3e84a9" stroke="#3e84a9"></path><path d="M51 304L55 370L92 308Z" fill="#4e89ac" stroke="#4e89ac"></path><path d="M400 174L400 139L353 154Z" fill="#a4b3be" stroke="#a4b3be"></path><path d="M0 338L55 370L51 304Z" fill="#afb9c1" stroke="#afb9c1"></path><path d="M146 55L102 54L140 92Z" fill="#6a95b1" stroke="#6a95b1"></path><path d="M65 123L22 118L74 150Z" fill="#5c8fae" stroke="#5c8fae"></path><path d="M102 30L102 54L146 55Z" fill="#99adbc" stroke="#99adbc"></path><path d="M7 213L0 233L40 221Z" fill="#a4b3be" stroke="#a4b3be"></path><path d="M102 54L67 74L108 111Z" fill="#297ea6" stroke="#297ea6"></path><path d="M0 273L51 304L59 253Z" fill="#8ea7b9" stroke="#8ea7b9"></path><path d="M0 233L0 273L59 253Z" fill="#297ea6" stroke="#297ea6"></path><path d="M301 11L251 17L251 34Z" fill="#8ea7b9" stroke="#8ea7b9"></path><path d="M251 34L225 7L197 60Z" fill="#297ea6" stroke="#297ea6"></path><path d="M364 400L330 343L309 392Z" fill="#8ea7b9" stroke="#8ea7b9"></path><path d="M380 333L400 350L400 293Z" fill="#6a95b1" stroke="#6a95b1"></path><path d="M50 400L69 400L55 370Z" fill="#a4b3be" stroke="#a4b3be"></path><path d="M55 370L69 400L93 400Z" fill="#769bb4" stroke="#769bb4"></path><path d="M37 73L22 118L65 123Z" fill="#afb9c1" stroke="#afb9c1"></path><path d="M7 213L0 156L0 233Z" fill="#6a95b1" stroke="#6a95b1"></path><path d="M301 400L364 400L309 392Z" fill="#297ea6" stroke="#297ea6"></path><path d="M251 17L225 7L251 34Z" fill="#769bb4" stroke="#769bb4"></path><path d="M0 273L0 309L6 296Z" fill="#3e84a9" stroke="#3e84a9"></path><path d="M6 296L0 309L51 304Z" fill="#82a1b7" stroke="#82a1b7"></path><path d="M22 118L0 156L74 150Z" fill="#8ea7b9" stroke="#8ea7b9"></path><path d="M400 101L362 60L341 74Z" fill="#297ea6" stroke="#297ea6"></path><path d="M341 74L301 11L293 93Z" fill="#3e84a9" stroke="#3e84a9"></path><path d="M400 139L400 101L353 154Z" fill="#297ea6" stroke="#297ea6"></path><path d="M67 74L37 73L65 123Z" fill="#99adbc" stroke="#99adbc"></path><path d="M102 54L102 30L67 74Z" fill="#297ea6" stroke="#297ea6"></path><path d="M153 0L102 30L146 55Z" fill="#afb9c1" stroke="#afb9c1"></path><path d="M244 0L226 0L225 7Z" fill="#769bb4" stroke="#769bb4"></path><path d="M225 7L186 0L197 60Z" fill="#a4b3be" stroke="#a4b3be"></path><path d="M244 0L225 7L251 17Z" fill="#8ea7b9" stroke="#8ea7b9"></path><path d="M30 390L50 400L55 370Z" fill="#8ea7b9" stroke="#8ea7b9"></path><path d="M226 0L186 0L225 7Z" fill="#8ea7b9" stroke="#8ea7b9"></path><path d="M293 0L244 0L251 17Z" fill="#8ea7b9" stroke="#8ea7b9"></path><path d="M26 0L37 73L67 74Z" fill="#5c8fae" stroke="#5c8fae"></path><path d="M22 118L0 107L0 156Z" fill="#769bb4" stroke="#769bb4"></path><path d="M0 309L0 338L51 304Z" fill="#a4b3be" stroke="#a4b3be"></path><path d="M353 24L301 11L341 74Z" fill="#99adbc" stroke="#99adbc"></path><path d="M186 0L153 0L146 55Z" fill="#4e89ac" stroke="#4e89ac"></path><path d="M0 338L30 390L55 370Z" fill="#4e89ac" stroke="#4e89ac"></path><path d="M303 0L293 0L301 11Z" fill="#6a95b1" stroke="#6a95b1"></path><path d="M301 11L293 0L251 17Z" fill="#5c8fae" stroke="#5c8fae"></path><path d="M0 89L0 107L22 118Z" fill="#3e84a9" stroke="#3e84a9"></path><path d="M400 101L400 69L362 60Z" fill="#8ea7b9" stroke="#8ea7b9"></path><path d="M354 0L303 0L301 11Z" fill="#769bb4" stroke="#769bb4"></path><path d="M353 24L341 74L362 60Z" fill="#afb9c1" stroke="#afb9c1"></path><path d="M364 400L400 400L400 350Z" fill="#297ea6" stroke="#297ea6"></path><path d="M400 0L353 24L362 60Z" fill="#82a1b7" stroke="#82a1b7"></path><path d="M0 37L0 89L37 73Z" fill="#8ea7b9" stroke="#8ea7b9"></path><path d="M37 73L0 89L22 118Z" fill="#3e84a9" stroke="#3e84a9"></path><path d="M0 37L37 73L26 0Z" fill="#5c8fae" stroke="#5c8fae"></path><path d="M153 0L103 0L102 30Z" fill="#6a95b1" stroke="#6a95b1"></path><path d="M0 338L0 390L30 390Z" fill="#6a95b1" stroke="#6a95b1"></path><path d="M30 390L0 400L50 400Z" fill="#3e84a9" stroke="#3e84a9"></path><path d="M0 390L0 400L30 390Z" fill="#769bb4" stroke="#769bb4"></path><path d="M400 0L354 0L353 24Z" fill="#a4b3be" stroke="#a4b3be"></path><path d="M353 24L354 0L301 11Z" fill="#5c8fae" stroke="#5c8fae"></path><path d="M26 0L67 74L102 30Z" fill="#a4b3be" stroke="#a4b3be"></path><path d="M400 69L400 0L362 60Z" fill="#a4b3be" stroke="#a4b3be"></path><path d="M103 0L26 0L102 30Z" fill="#99adbc" stroke="#99adbc"></path><path d="M26 0L0 0L0 37Z" fill="#82a1b7" stroke="#82a1b7"></path></g></svg>